{"title":"Mother.2017.720p.BluRay.x264.ESub","magnet":"magnet:?xt=urn:btih:2198f5095abb1faab6df78765ac1b65905144e1d&dn=Mother.2017.720p.BluRay.x264.ESub&tr=udp%3A%2F%2Ftracker.leechers-paradise.org%3A6969&tr=udp%3A%2F%2Fzer0day.ch%3A1337&tr=udp%3A%2F%2Fopen.demonii.com%3A1337&tr=udp%3A%2F%2Ftracker.coppersurfer.tk%3A6969&tr=udp%3A%2F%2Fexodus.desync.com%3A6969","uploader":"LifeLongg","categoryP":"video","categoryS":"hd___movies","size":"1335153711","seeders":"4","leechers":"11","description":"******************************Screenshots:********************\r\n <a href=\"\nhttp://picserver4u.com/0881.html\" rel=\"nofollow\" target=\"_NEW\">\nhttp://picserver4u.com/0881.html</a>\r\n <a href=\"\nhttp://picserver4u.com/0882.html\" rel=\"nofollow\" target=\"_NEW\">\nhttp://picserver4u.com/0882.html</a>\r\n <a href=\"\nhttp://picserver4u.com/0883.html\" rel=\"nofollow\" target=\"_NEW\">\nhttp://picserver4u.com/0883.html</a>\r\n <a href=\"\nhttp://picserver4u.com/0884.html\" rel=\"nofollow\" target=\"_NEW\">\nhttp://picserver4u.com/0884.html</a>\r\n <a href=\"\nhttp://picserver4u.com/0885.html\" rel=\"nofollow\" target=\"_NEW\">\nhttp://picserver4u.com/0885.html</a>\r\n\r\n****************************************************************\r\n\r\nGeneral\r\nComplete name                            : Mother.2017.720p.BluRay.x264.mp4\r\nFormat                                   : MPEG-4\r\nFormat profile                           : Base Media\r\nCodec ID                                 : isom (isom/iso2/avc1/mp41)\r\nFile size                                : 1.22 GiB\r\nDuration                                 : 2 h 1 min\r\nOverall bit rate                         : 1 446 kb/s\r\nWriting application                      : Lavf57.56.101\r\n\r\nVideo\r\nID                                       : 1\r\nFormat                                   : AVC\r\nFormat/Info                              : Advanced Video Codec\r\nFormat profile                           : <a href=\"/cdn-cgi/l/email-protection\" class=\"__cf_email__\" data-cfemail=\"82caebe5eac2ceb1acb3\">[email&#xA0;protected]</a>\r\nFormat settings                          : CABAC / 4 Ref Frames\r\nFormat settings, CABAC                   : Yes\r\nFormat settings, RefFrames               : 4 frames\r\nCodec ID                                 : avc1\r\nCodec ID/Info                            : Advanced Video Coding\r\nDuration                                 : 2 h 1 min\r\nBit rate                                 : 1 200 kb/s\r\nWidth                                    : 1 280 pixels\r\nHeight                                   : 536 pixels\r\nDisplay aspect ratio                     : 2.40:1\r\nFrame rate mode                          : Constant\r\nFrame rate                               : 23.976 (23976/1000) FPS\r\nColor space                              : YUV\r\nChroma subsampling                       : 4:2:0\r\nBit depth                                : 8 bits\r\nScan type                                : Progressive\r\nBits/(Pixel*Frame)                       : 0.073\r\nStream size                              : 1.00 GiB (82%)\r\nLanguage                                 : English\r\nMenus                                    : 3\r\n\r\nAudio\r\nID                                       : 2\r\nFormat                                   : AC-3\r\nFormat/Info                              : Audio Coding 3\r\nCodec ID                                 : ac-3\r\nDuration                                 : 2 h 1 min\r\nBit rate mode                            : Constant\r\nBit rate                                 : 256 kb/s\r\nChannel(s)                               : 6 channels\r\nChannel positions                        : Front: L C R, Side: L R, LFE\r\nSampling rate                            : 48.0 kHz\r\nFrame rate                               : 31.250 FPS (1536 SPF)\r\nBit depth                                : 16 bits\r\nCompression mode                         : Lossy\r\nStream size                              : 222 MiB (18%)\r\nLanguage                                 : English\r\nService kind                             : Complete Main\r\nDefault                                  : Yes\r\nAlternate group                          : 1\r\nMenus                                    : 3","last_updated":"2017-12-08T12:09:15.320Z","parsed":{"xt":"urn:btih:2198f5095abb1faab6df78765ac1b65905144e1d","dn":"Mother.2017.720p.BluRay.x264.ESub","tr":["udp://exodus.desync.com:6969","udp://open.demonii.com:1337","udp://tracker.coppersurfer.tk:6969","udp://tracker.leechers-paradise.org:6969","udp://zer0day.ch:1337"],"infoHash":"2198f5095abb1faab6df78765ac1b65905144e1d","infoHashBuffer":{"type":"Buffer","data":[33,152,245,9,90,187,31,170,182,223,120,118,90,193,182,89,5,20,78,29]},"name":"Mother.2017.720p.BluRay.x264.ESub","announce":["udp://exodus.desync.com:6969","udp://open.demonii.com:1337","udp://tracker.coppersurfer.tk:6969","udp://tracker.leechers-paradise.org:6969","udp://zer0day.ch:1337"],"urlList":[]}}